<?xml version="1.0" encoding="utf-8"?>
<!-- Generator: Adobe Illustrator 25.4.1, SVG Export Plug-In . SVG Version: 6.00 Build 0)  -->
<svg version="1.1" id="Layer_1" xmlns="http://www.w3.org/2000/svg" xmlns:xlink="http://www.w3.org/1999/xlink" x="0px" y="0px"
	 viewBox="0 0 800 800" style="enable-background:new 0 0 800 800;" xml:space="preserve">
<style type="text/css">
	.st0{fill-rule:evenodd;clip-rule:evenodd;fill:#1D41AF;}
	.st1{clip-path:url(#SVGID_00000138567361060212812370000017752047807911806366_);}
	.st2{fill:#F58B51;}
</style>
<g id="SVGRepo_bgCarrier">
</g>
<g id="SVGRepo_tracerCarrier">
</g>
<g id="SVGRepo_iconCarrier">
	<g>
		<path class="st0" d="M332.4,233v442h160.2V233H332.4z M448.5,270.4h-72.1v367.2h72.1V270.4z M92.1,369h160.2v306H92.1V369z
			 M136.1,406.4h72.1v231.2h-72.1V406.4z"/>
		<path class="st0" d="M773,743H52v37.4h721V743z"/>
		<path class="st0" d="M572.7,437h160.2v238H572.7V437z M616.8,474.4h72.1v163.2h-72.1V474.4z"/>
	</g>
</g>
<g id="SVGRepo_iconCarrier_00000073698138164734708270000001717176642908564366_">
	<g>
		<defs>
			<rect id="SVGID_1_" x="199.9" y="17" width="513.4" height="300.7"/>
		</defs>
		<clipPath id="SVGID_00000080208354471213082280000013197885429204934794_">
			<use xlink:href="#SVGID_1_"  style="overflow:visible;"/>
		</clipPath>
		<g style="clip-path:url(#SVGID_00000080208354471213082280000013197885429204934794_);">
			<path class="st2" d="M682.1,18.2c-9.5-0.8-16.6,1.1-21.7,5.8c-6.7,6.1-9.9,16.9-10.1,33.7c-5.5,6.3-11,12.6-16.5,18.8
				c-12.7,14.4-25.8,29.3-38.5,44c-12.7,14.7-25.6,29.8-38,44.3c-5.3,6.2-10.7,12.5-16,18.8c-1.4,0-2.9-0.1-4.5-0.2
				c-4.7-0.6-9.4-0.4-14,0.7c-6.1,1.8-9.7,0.1-15.1-4.2c-29.5-23.6-56.8-42-83.7-56.2c-2.1-1-4-2.4-5.4-4.2c-1.5-1.8-2.5-3.9-3-6.2
				c-2.1-8.2-7.4-15.2-14.6-19.6c-7.2-4.3-15.8-5.7-24-3.7c-8.3,2-15.6,7-20.4,14.1c-4.8,7.1-6.7,15.8-5.4,24.3
				c0.3,2.2,0.7,4.5,1.1,6.6l0.3,1.8L244.7,241.5c-0.5-0.1-1.1-0.1-1.6-0.2c-1.8-0.2-3.7-0.4-5.5-0.4c-17.8-0.5-28.8,7.4-34.5,24.8
				c-4.3,13.1,0.4,24.7,4.3,32.4c2.7,5.5,6.7,10.2,11.7,13.6c5,3.4,10.8,5.4,16.9,5.9c0.6,0,1.2,0,1.8,0.1
				c5.8-0.1,11.5-1.6,16.6-4.5c5.1-2.9,9.4-7,12.5-11.9c9.3-14.1,10.7-27.3,4.4-40.3l104.7-100.5l29.2-9.1l86.5,59.8
				c0.7,12.9,3.9,22.5,10.2,31.2c3.7,5.3,9.1,9.2,15.3,11c6.2,1.8,12.8,1.5,18.8-1c17.3-6.6,26.9-21.3,26.4-40.3l105-131.5
				c14.9,2.9,26.5,1.6,34.4-4.1c6.1-4.4,9.9-11.1,11.1-20.1c0.7-4.5,0.5-9.1-0.7-13.6c-1.1-4.4-3.2-8.6-6-12.2
				c-3-3.6-6.6-6.6-10.7-8.7C691.3,19.7,686.7,18.5,682.1,18.2z"/>
		</g>
	</g>
</g>
</svg>
