<?xml version="1.0" encoding="utf-8"?>
<!-- Generator: Adobe Illustrator 25.4.1, SVG Export Plug-In . SVG Version: 6.00 Build 0)  -->
<svg version="1.1" id="Layer_1" xmlns="http://www.w3.org/2000/svg" xmlns:xlink="http://www.w3.org/1999/xlink" x="0px" y="0px"
	 viewBox="0 0 800 800" style="enable-background:new 0 0 800 800;" xml:space="preserve">
<style type="text/css">
	.st0{fill:#01579B;}
	.st1{fill:#F5F5F5;}
	.st2{fill:#94C6D6;}
	.st3{fill:#0091EA;}
	.st4{fill:#616161;}
	.st5{fill:#424242;}
	.st6{fill:#9CCC65;}
	.st7{fill:#689F38;}
	.st8{fill:#B9E4EA;}
	.st9{fill:none;stroke:#424242;stroke-width:12.9438;stroke-miterlimit:62.5;}
	.st10{fill:#C62828;}
	.st11{fill:#F44336;}
</style>
<path class="st0" d="M678.8,676.4L447,781.1c-14.3,6.7-29.2,6.1-42.9-1.8L111.6,630.8c-8.4-5.4-10.8-13.2-10.3-18.7
	s1.8-11.4,16.5-15.7l21.7-8l293.5,160l208.6-85.2L678.8,676.4L678.8,676.4z"/>
<path class="st1" d="M444.2,764.4c-11.8,5.5-25.5,5-36.8-1.3L121.8,619.1c-4.1-2.2-5.3-7.3-2.8-11.3c6.3-10.4,17.8-43.2-1.2-70.5
	l322.6,155.3L444.2,764.4z"/>
<path class="st2" d="M666.4,664.5l-222.2,99.9c-7.3,3.2-22,8.9-38.9-2.5c13.3,1,22.7-4.6,27.5-13.5c4.7-8.7,3.3-23-2.4-31.1
	c-3.5-4.9-12.9-12.6-17-17l240.3-94c21.3-8.8,41.2,4.4,44.4,20.3C701.8,644.7,678.8,659.4,666.4,664.5z"/>
<path class="st0" d="M677.5,598.5L448.1,700.9c-14.4,5.7-30.6,5-44.4-2L110.6,550c-2.8-1.4-7-5.3-8.7-10.6
	c-2.7-8.9,0.7-20,11.1-23.6l317.6,161.9l217.5-93.1L677.5,598.5z"/>
<path class="st3" d="M694.8,613.4l-25-9.1l-51.5,3l-170.2,76c-14.4,5.7-30.6,5-44.4-2L110.6,532.4c-7.6-3.9-5.9-15,2.4-16.6
	l211.3-94.5c6-1.1,12.2-0.5,17.8,1.9l301.4,143.7C643.5,566.9,691.4,599.7,694.8,613.4z"/>
<path class="st4" d="M615.4,608.8c0,0,31.7-12.4,56.7-11.3s33.6,18.6,33.6,18.6c-4.7-21.4-26.9-32.4-26.9-32.4L349.5,417.8
	c-2.3-1-10.7-2.9-23.6,2.4c-10.4,4.3-44.5,20.3-44.5,20.3L615.4,608.8L615.4,608.8z"/>
<path class="st5" d="M707.1,620.1c-2.4-9.5-8.3-19.6-19.1-24.5c-14.3-6.4-34.7-4.8-47.7,2l-24.9,11v17.5l31.5-14
	c30.6-13.6,44.2,6.8,45.4,11.6c4.9,19.6-4.6,31-32.4,43.7l-45.2,20.4v17.6l52-23.2C689.7,673.2,715.9,655.8,707.1,620.1z"/>
<g>
	<path class="st0" d="M248,615.5l-87.5-121l13.7-6.1l98.5,135.3L248,615.5z"/>
</g>
<g>
	<path class="st0" d="M360.2,671.2l-15.6-12.4l270.8-55.3v8.9l-38,14.4L360.2,671.2z"/>
</g>
<g>
	<path class="st6" d="M155.7,391.9l342.1-57.2l149.4,164.5c7.6,8,3.4,21.1-7.3,23.3L286.7,595L155.7,391.9z"/>
	<path class="st7" d="M639.9,508.4l-350.8,71l-1.1,16.7L639.9,524c9.9-2.1,14.1-13.4,8.7-21.4C646.7,505.4,643.7,507.6,639.9,508.4
		L639.9,508.4z"/>
	<path class="st7" d="M658.8,585c3.7,5.9,0.4,13.6-6.4,15l-322.9,65.5c-19.4,4-38.5-8.7-40.2-28.5c-1.5-16.7,9.8-31.9,26.3-35.3
		L626.1,532L658.8,585L658.8,585z"/>
	<path class="st4" d="M362.4,563.8l-128.6-184l-73.4,19.4c-17,16.9-10.6,44.6-10.6,44.6S262.1,624,279.8,647.1
		c17.7,23.1,43.6,19.5,43.6,19.5l43.7-8.8l-4.6-81.6L362.4,563.8z"/>
	<path class="st5" d="M362.4,565l-61.8,12.8c-16.9,3.8-19.9,19.7-19.9,19.7L131.6,383.7c0,0-21.2,25.7-7.1,47.5l155.4,215.8
		c17,24.2,43.6,19.7,43.6,19.7l43.7-8.8l-4.5-80L362.4,565L362.4,565z"/>
	<path class="st8" d="M639.4,578.5c1.6,3.4-0.5,7.4-4.2,8.2L326.5,650c-19.4,4-33.1-8.9-32.4-26.4c0.9-22.1,13.3-31.5,29.7-34.9
		L634,525.3c0,0-10.5,11.9-2.5,34.1C634.3,567,637.2,573.8,639.4,578.5z"/>
	<path class="st9" d="M309.8,582L177.5,394.8"/>
</g>
<path class="st5" d="M320.2,502.2L150,416.5l-6.9,13.6l196.6,100.2L320.2,502.2z"/>
<path class="st7" d="M632,482.3l-12.5-13.7l-191.7,88l-107.6-53.3l18.3,26.2l71.3,36.4l53.1-8.2L632,482.3z"/>
<g>
	<path class="st10" d="M678.7,448.5L447,553.3c-14.3,6.7-29.2,6.1-42.9-1.8L111.6,402.9c-8.4-5.4-10.8-13.2-10.3-18.7
		c0.5-5.5,1.8-11.4,16.5-15.7l13.7-5.1L432,511l244.1-101L678.7,448.5z"/>
	<path class="st1" d="M444.2,536.5c-11.8,5.5-25.5,5-36.8-1.3L121.7,391.3c-4.1-2.2-5.3-7.3-2.8-11.3c6.3-10.4,17.8-43.2-1.2-70.5
		l315.4,160.4L444.2,536.5z"/>
	<path class="st2" d="M666.4,436.6l-222.2,99.9c-7.3,3.2-22,8.9-38.9-2.5c13.3,1,22.7-4.6,27.5-13.5c4.7-8.7,3.3-23-2.4-31.1
		c-3.5-4.9-12.9-12.6-17-17l240.3-94c21.3-8.8,41.2,4.4,44.4,20.3C701.7,416.8,678.7,431.6,666.4,436.6L666.4,436.6z"/>
	<path class="st10" d="M677.5,370.7L448.1,473c-14.4,5.7-30.6,5-44.4-2L110.5,322.1c-3-1.5-7.6-5.4-9.1-10.9
		c-2.2-8.2,0.7-19,11.5-23.3L381.5,231L677.5,370.7L677.5,370.7z"/>
	<path class="st11" d="M694.7,385.5l-25-9.1l-51.5,3l-170.2,76c-14.4,5.7-30.6,5-44.4-2L110.5,304.5c-7.6-3.9-4.9-14,2.4-16.6
		l211.3-94.5c6-1.1,12.2-0.5,17.8,1.9L643.5,339C643.5,339,691.3,371.8,694.7,385.5L694.7,385.5z"/>
	<path class="st4" d="M615.4,380.8c0,0,26.4-9.3,51.3-8.2c24.9,1.1,39,15.5,39,15.5c-5.1-22.9-26.9-32.4-26.9-32.4L349.5,189.9
		c-2.3-1-10.7-2.9-23.6,2.4c-10.4,4.3-44.5,20.3-44.5,20.3L615.4,380.8z"/>
	<path class="st5" d="M645.6,370l-337-170l11.1-5l342.7,171.8L645.6,370z"/>
	<path class="st5" d="M707.1,392.2c-2.4-9.5-6.4-18.6-17.7-23.4c-14.4-6.1-27.6-7.3-49.1,0.9l-24.9,11v17.5l31.5-14
		c16-7.5,39.5-5.9,45.4,11.6c6.4,19.2-4.6,31-32.4,43.7L614.6,460v17.6l52-23.2C689.7,445.3,715.9,428,707.1,392.2L707.1,392.2z"/>
</g>
</svg>
