<?xml version="1.0" encoding="utf-8"?>
<!-- Generator: Adobe Illustrator 25.4.1, SVG Export Plug-In . SVG Version: 6.00 Build 0)  -->
<svg version="1.1" id="Layer_1" xmlns="http://www.w3.org/2000/svg" xmlns:xlink="http://www.w3.org/1999/xlink" x="0px" y="0px"
	 viewBox="0 0 800 800" style="enable-background:new 0 0 800 800;" xml:space="preserve">
<style type="text/css">
	.st0{fill:#1C2CA0;}
	.st1{fill:none;stroke:#D35422;stroke-width:40;stroke-linecap:round;stroke-linejoin:round;stroke-miterlimit:133.3333;}
</style>
<g id="SVGRepo_bgCarrier">
</g>
<g id="SVGRepo_tracerCarrier">
</g>
<g>
	<g>
		<path class="st0" d="M500.4,234.8H299.8c-5.5,0-10,4.5-10,10s4.5,10,10,10h200.6c5.5,0,10-4.5,10-10S505.9,234.8,500.4,234.8z"/>
	</g>
</g>
<g>
	<g>
		<path class="st0" d="M359.4,314.9h-59.6c-5.5,0-10,4.5-10,10c0,5.5,4.5,10,10,10h59.6c5.5,0,10-4.5,10-10
			C369.4,319.4,364.9,314.9,359.4,314.9z"/>
	</g>
</g>
<g>
	<g>
		<path class="st0" d="M500.4,314.9h-95.9c-5.5,0-10,4.5-10,10c0,5.5,4.5,10,10,10h95.9c5.5,0,10-4.5,10-10
			C510.4,319.4,505.9,314.9,500.4,314.9z"/>
	</g>
</g>
<g>
	<g>
		<path class="st0" d="M500.4,475.1h-59.6c-5.5,0-10,4.5-10,10c0,5.5,4.5,10,10,10h59.6c5.5,0,10-4.5,10-10
			C510.4,479.6,505.9,475.1,500.4,475.1z"/>
	</g>
</g>
<g>
	<g>
		<path class="st0" d="M395.7,475.1h-95.9c-5.5,0-10,4.5-10,10c0,5.5,4.5,10,10,10h95.9c5.5,0,10-4.5,10-10
			C405.7,479.6,401.2,475.1,395.7,475.1z"/>
	</g>
</g>
<g>
	<g>
		<path class="st0" d="M500.4,395H299.8c-5.5,0-10,4.5-10,10c0,5.5,4.5,10,10,10h200.6c5.5,0,10-4.5,10-10
			C510.4,399.5,505.9,395,500.4,395z"/>
	</g>
</g>
<g>
	<g>
		<path class="st0" d="M261.7,207c-3.9-3.9-10.2-3.9-14.2,0l-38.2,38.2l-17.7-17.7c-3.9-3.9-10.2-3.9-14.2,0
			c-3.9,3.9-3.9,10.2,0,14.2l24.7,24.7c2,2,4.5,2.9,7.1,2.9c2.6,0,5.1-1,7.1-2.9l45.3-45.3C265.6,217.3,265.6,210.9,261.7,207z"/>
	</g>
</g>
<g>
	<g>
		<path class="st0" d="M261.7,286.8c-3.9-3.9-10.2-3.9-14.2,0l-38.2,38.2l-17.7-17.7c-3.9-3.9-10.2-3.9-14.2,0
			c-3.9,3.9-3.9,10.2,0,14.2l24.7,24.7c2,2,4.5,2.9,7.1,2.9c2.6,0,5.1-1,7.1-2.9l45.3-45.3C265.6,297.1,265.6,290.8,261.7,286.8z"/>
	</g>
</g>
<g>
	<g>
		<path class="st0" d="M261.7,366.8c-3.9-3.9-10.2-3.9-14.2,0L209.3,405l-17.7-17.7c-3.9-3.9-10.2-3.9-14.2,0
			c-3.9,3.9-3.9,10.2,0,14.2l24.7,24.7c2,2,4.5,2.9,7.1,2.9c2.6,0,5.1-1,7.1-2.9l45.3-45.3C265.6,377.1,265.6,370.7,261.7,366.8z"/>
	</g>
</g>
<g>
	<g>
		<path class="st0" d="M261.7,447c-3.9-3.9-10.2-3.9-14.2,0l-38.2,38.2l-17.7-17.7c-3.9-3.9-10.2-3.9-14.2,0
			c-3.9,3.9-3.9,10.2,0,14.2l24.7,24.7c2,2,4.5,2.9,7.1,2.9c2.6,0,5.1-1,7.1-2.9l45.3-45.3C265.6,457.2,265.6,450.9,261.7,447z"/>
	</g>
</g>
<g id="SVGRepo_iconCarrier_00000075120749532955587920000017023126538830005659_">
	<g id="Warning__x2F__Shield_x5F_Warning">
		<path id="Vector" class="st1" d="M619.7,520.1v60.1 M739.9,552.6c0,98.7-74.6,142.9-106.3,157.2l0,0c-3.3,1.5-5,2.3-8.8,2.9
			c-2.4,0.4-7.8,0.4-10.2,0c-3.8-0.7-5.5-1.4-8.8-2.9c-31.6-14.3-106.3-58.6-106.3-157.2V493c0-16.8,0-25.2,3.3-31.7
			c2.9-5.7,7.5-10.2,13.1-13.1c6.4-3.3,14.8-3.3,31.7-3.3h144.2c16.8,0,25.2,0,31.7,3.3c5.7,2.9,10.3,7.5,13.1,13.1
			c3.3,6.4,3.3,14.8,3.3,31.6V552.6z M620.4,625.2v1.5l-1.5,0v-1.5H620.4z"/>
	</g>
</g>
<path class="st0" d="M443.6,595.2H117.3V94.7h85.1V111c0,2.8,4.2,3.7,6.9,3.7h250.1c2.8,0,3.3-1,3.3-3.7V94.7h85.1v305h55.1V105.3
	c0-24.8-18.1-45.7-42.9-45.7h-96.6c-4.4-20-22.5-35-44-35h-47.9C365.4,9.6,351.1,0,334.7,0c-16.4,0-30.7,9.6-36.8,24.6h-48.5
	c-21.5,0-39.6,15-44,35h-96c-24.8,0-47.2,20.8-47.2,45.7V595c0,24.8,22.3,45.2,47.2,45.2h356.3C457,627.1,449.3,612.2,443.6,595.2z
	 M334.7,20c11,0,20,9,20,20c0,11-9,20-20,20c-11,0-20-9-20-20C314.7,29,323.7,20,334.7,20z"/>
</svg>
