<svg xmlns="http://www.w3.org/2000/svg" viewBox="0 0 519.35 519.33"><defs><style>.cls-1{fill:#f9f9f9;}</style></defs><g id="Layer_2" data-name="Layer 2"><g id="Layer_1-2" data-name="Layer 1"><path class="cls-1" d="M503.53,426.53c21.1,21.1,21.1,55.9,0,76.8a54.56,54.56,0,0,1-77,0l-166.8-166.9-166.9,167a53.64,53.64,0,0,1-38.5,15.9,53.94,53.94,0,0,1-38.5-15.9c-21.11-21.1-21.11-55.91,0-76.8l166.9-167-166.8-167c-21.1-21.1-21.1-55.9,0-76.8s55.9-21.1,76.8,0l166.9,166.89L426.53,15.83c21.1-21.11,55.9-21.11,76.8,0s21.09,55.89,0,76.8l-166.8,167Z"/></g></g></svg>