<?xml version="1.0" encoding="utf-8"?>
<!-- Generator: Adobe Illustrator 25.4.1, SVG Export Plug-In . SVG Version: 6.00 Build 0)  -->
<svg version="1.1" id="Layer_1" xmlns="http://www.w3.org/2000/svg" xmlns:xlink="http://www.w3.org/1999/xlink" x="0px" y="0px"
	 viewBox="0 0 800 800" style="enable-background:new 0 0 800 800;" xml:space="preserve">
<style type="text/css">
	.st0{fill:#EA6A13;}
	.st1{fill:none;stroke:#1C2CA0;stroke-width:66.6667;stroke-linecap:round;stroke-linejoin:round;stroke-miterlimit:133.3333;}
	.st2{fill:none;}
	.st3{fill:#140DA0;}
	.st4{font-family:'MyriadPro-Regular';}
	.st5{font-size:400px;}
</style>
<g id="SVGRepo_bgCarrier">
</g>
<g id="SVGRepo_tracerCarrier">
</g>
<g id="SVGRepo_iconCarrier">
	<path class="st0" d="M589.5,387.2c-2.5,0-5,0.1-7.5,0.2l0.5,12.2c2.3-0.1,4.6-0.2,7-0.2c80.8,0,146.2,65.4,146.2,146.2
		s-65.4,146.2-146.2,146.2c-60.9,0-113.1-37.2-135-90.1l18.8-5.6l-32.9-23.3l-13,37.1l15.3-4.6c23.5,57.9,80.5,98.8,146.8,98.8
		c87.4,0,158.4-71,158.4-158.4S676.9,387.2,589.5,387.2z M568.5,388.6c-9,1.2-17.7,3.1-26.2,5.8l3.8,11.6c7.7-2.4,15.8-4.2,24.1-5.3
		L568.5,388.6L568.5,388.6z M529.8,398.9c-8.4,3.4-16.5,7.6-24.1,12.3l6.5,10.3c7-4.4,14.4-8.2,22.2-11.3L529.8,398.9z M494.6,418.8
		c-7.1,5.3-13.8,11.3-20,17.8l8.9,8.3c5.6-6,11.8-11.4,18.4-16.4l-3.3-4.5L494.6,418.8L494.6,418.8z M541.8,424.6l-3,11.9
		l147.5,37.7l3-11.8L541.8,424.6z M465.8,446.7c-5.6,6.9-10.6,14.4-14.9,22.2l10.6,6c4-7.3,8.6-14.1,13.8-20.6L465.8,446.7z
		 M552.6,452.7c-2.7,17.7,1.9,37.5,9.7,53.8c4.4,9.1,9.7,17.1,14.9,23c2.9,3.2,5.7,5.6,8.3,7.4l-3.7,14.4c-3.1,0.3-6.8,1.1-10.9,2.5
		c-7.4,2.6-15.9,7.1-24.1,13c-14.7,10.6-28.1,25.8-34.3,42.6l113.9,29.2c2.7-17.7-1.9-37.5-9.7-53.8c-4.4-9.1-9.7-17.1-14.9-23
		c-2.9-3.2-5.7-5.6-8.3-7.4l3.7-14.4c3.1-0.3,6.8-1.1,10.9-2.5c7.4-2.6,15.9-7.1,24.1-13c14.7-10.6,28.1-25.8,34.3-42.6L552.6,452.7
		L552.6,452.7z M444.8,481c-3.6,8.2-6.6,16.6-8.8,25.4l11.9,2.9c2.1-8,4.8-15.8,8.1-23.2L444.8,481z M433.3,519.4
		c-1.4,8.5-2.2,17.3-2.2,26.2v0.6l12.2-0.1v-0.5c0-8.2,0.7-16.3,2-24.2L433.3,519.4z M492.6,617l-3,11.8l147.5,37.7l3-11.8
		L492.6,617z"/>
</g>
<path class="st1" d="M352,529L352,529c0-118.5,93.2-215.2,210.3-220.7c0.2-5.3,0.4-10.8,0.4-16.3V169c0-34.6,0-52-6.7-65.2
	c-5.9-11.7-15.4-21.1-27.1-27.1C515.6,70,498.2,70,463.5,70H166.1c-34.7,0-52.1,0-65.3,6.8c-11.7,5.9-21.1,15.4-27.1,27.1
	c-6.8,13.3-6.8,30.6-6.8,65.3V292c0,203.5,153.9,294.7,219.2,324.3c6.9,3.1,10.4,4.7,18.2,6c4.9,0.8,16,0.8,21,0
	c7.8-1.3,11.2-2.9,18.1-6l0.1,0c6.6-3,14-6.6,22.1-10.8C356.8,581.6,352,555.9,352,529z"/>
<rect x="264.8" y="113" class="st2" width="284.2" height="389"/>
<text transform="matrix(1 0 0 1 264.8081 396.9961)" class="st3 st4 st5">!</text>
<rect x="713" y="476" class="st2" width="5" height="2"/>
</svg>
