<?xml version="1.0" encoding="utf-8"?>
<!-- Generator: Adobe Illustrator 25.4.1, SVG Export Plug-In . SVG Version: 6.00 Build 0)  -->
<svg version="1.1" id="Layer_1" xmlns="http://www.w3.org/2000/svg" xmlns:xlink="http://www.w3.org/1999/xlink" x="0px" y="0px"
	 viewBox="0 0 800 800" style="enable-background:new 0 0 800 800;" xml:space="preserve">
<style type="text/css">
	.st0{fill:#C18205;}
	.st1{fill:#AA6E04;}
	.st2{fill:#FFB000;}
	.st3{fill:#FFFFFF;}
	.st4{fill:#EFEFEF;}
	.st5{fill:#B1BAB9;}
	.st6{fill:#FFC200;}
</style>
<path class="st0" d="M660.9,175.8H448.2c-6.9,0-12.9,0-19.8,10.3l-11.2,15.4H165.7c-14.6,0-26.7,13.7-26.7,28.3v336.9
	c0,14.6,12.1,29.1,26.7,29.1h480.6c14.6,0,26.7-14.6,26.7-29.1V306.1v-75.4v-44.6C673,180.1,667.8,175.8,660.9,175.8z"/>
<path class="st1" d="M661.8,522.1c6.9-5.1,11.2-12.9,11.2-21.4V306.1v-75.4v-44.6c0-6-5.2-10.3-12.1-10.3H448.2
	c-6.9,0-12.9,0-19.8,10.3l-11.2,15.4H165.7c-13.8,0-25,11.1-26.7,24L661.8,522.1z"/>
<path class="st2" d="M673,578.7c0,14.6-12.1,25.7-26.7,25.7H165.7c-14.6,0-26.7-11.1-26.7-25.7l8.6-271.7
	c0-14.6,12.1-28.3,26.7-28.3h464.2c14.6,0,26.7,13.7,26.7,28.3L673,578.7z"/>
<rect x="201" y="218.1" class="st3" width="416" height="304"/>
<rect x="417" y="218.1" class="st4" width="200" height="304"/>
<path class="st4" d="M553,322.1H265"/>
<path class="st4" d="M553,386.1H265"/>
<g>
	<path class="st5" d="M553,306.1H265c-6.4,0-12-5.6-12-12s5.6-12,12-12h288c6.4,0,12,5.6,12,12S559.4,306.1,553,306.1z"/>
	<path class="st5" d="M553,370.1H265c-6.4,0-12-5.6-12-12s5.6-12,12-12h288c6.4,0,12,5.6,12,12S559.4,370.1,553,370.1z"/>
</g>
<path class="st6" d="M669.6,591.6L149.3,298.4c-0.9,3.4-1.7,6.9-1.7,10.3l-8.6,270c0,14.6,12.1,25.7,26.7,25.7h480.6
	C655.8,604.4,664.4,599.3,669.6,591.6z"/>
</svg>
