<?xml version="1.0" encoding="utf-8"?>
<!-- Generator: Adobe Illustrator 25.4.1, SVG Export Plug-In . SVG Version: 6.00 Build 0)  -->
<svg version="1.1" id="_x35_" xmlns="http://www.w3.org/2000/svg" xmlns:xlink="http://www.w3.org/1999/xlink" x="0px" y="0px"
	 viewBox="0 0 512 512" style="enable-background:new 0 0 512 512;" xml:space="preserve">
<style type="text/css">
	.st0{fill:#2E2927;}
	.st1{fill:#4E3E3E;}
	.st2{fill:#918037;}
	.st3{opacity:0.5;}
	.st4{fill:#161616;}
	.st5{fill:#DCDBDB;}
	.st6{fill:#C8C0AA;}
	.st7{opacity:0.2;fill:#FFFFFF;enable-background:new    ;}
</style>
<g>
	<g>
		<g>
			<path class="st0" d="M318.2,494.3v15.8c0,1.1-0.8,1.9-1.9,1.9H207.7c-1.1,0-1.9-0.8-1.9-1.9v-15.8c0-6.3,5.2-11.6,11.5-11.6h89.5
				C313.1,482.8,318.2,488,318.2,494.3z"/>
		</g>
		<g>
			<path class="st1" d="M273.2,411.4v82.7c0,1.2-1,2.2-2.2,2.2H253c-1.2,0-2.2-1-2.2-2.2v-82.7c0-1.2,1-2.2,2.2-2.2H271
				C272.2,409.1,273.2,410.1,273.2,411.4z"/>
		</g>
		<g>
			<path class="st0" d="M153.6,285.3v79.4c0,55.5,41.6,101.8,96.8,107.7c0.1,0,0.3,0.1,0.4,0.1c3.9,0.4,7.6,0.6,11.2,0.6
				c3.6,0,7.4-0.2,11.2-0.6c0.1,0,0.3-0.1,0.4-0.1c24.3-2.6,47.4-13.6,64.9-31.1c20.5-20.6,31.8-47.7,31.8-76.5v-79.4H153.6z
				 M362.6,364.7c0,26.7-10.5,52-29.6,71c-16.1,16.2-37.5,26.5-59.8,28.9c-0.1,0.1-0.3,0.1-0.4,0.1c-3.7,0.4-7.2,0.6-10.8,0.6
				c-3.5,0-7-0.2-10.8-0.6c-0.1,0-0.3-0.1-0.4-0.1c-51-5.7-89.4-48.6-89.4-100V293h201.3L362.6,364.7L362.6,364.7z"/>
		</g>
		<g>
			<g>
				<path class="st2" d="M359.5,306.3c7.5,0,13.7-6.2,13.7-13.7l0,0c0-7.5-6.2-13.7-13.7-13.7h-8.7v27.4L359.5,306.3L359.5,306.3z"
					/>
			</g>
			<g>
				<path class="st2" d="M173.2,278.9v27.4h-8.7c-1.1,0-2.1-0.1-3.1-0.4c-1.4-0.3-2.7-0.8-3.9-1.5c-1-0.6-1.9-1.3-2.7-2.1
					c-0.4-0.4-0.8-0.9-1.2-1.3c-1.8-2.3-2.9-5.2-2.9-8.3c0-7.6,6.2-13.7,13.7-13.7H173.2z"/>
			</g>
		</g>
		<g>
			<path class="st0" d="M354.3,280.9v66.7c0,25.4-10.4,48.4-27.1,65.2c-14.2,14.2-33.1,23.9-54,26.5c-3.6,0.4-7.4,0.7-11.2,0.7
				c-3.8,0-7.5-0.2-11.2-0.7c-45.6-5.6-81.1-44.6-81.1-91.6v-66.7H354.3z"/>
		</g>
		<g class="st3">
			<rect x="169.8" y="302.7" class="st4" width="184.4" height="21.8"/>
		</g>
		<g>
			<rect x="165.8" y="270.8" class="st5" width="192.3" height="21.8"/>
		</g>
		<g>
			<rect x="165.8" y="292.6" class="st1" width="192.3" height="21.8"/>
		</g>
		<g>
			<g>
				<path class="st6" d="M354.3,216.3v59H169.7v-59c0-25.4,10.4-48.4,27.1-65.2c0.7-0.7,1.4-1.4,2.1-2c2.9-2.7,5.9-5.3,9.2-7.6
					c15.2-11,33.8-17.5,53.9-17.5c18.3,0,35.4,5.4,49.8,14.7c1.3,0.9,2.7,1.8,4,2.7c3.3,2.4,6.3,4.9,9.2,7.6
					c5.5,5.2,10.4,11,14.5,17.4C348.9,180.9,354.3,198,354.3,216.3z"/>
			</g>
			<g>
				<path class="st1" d="M210.4,146.2c0,3.4-2.7,6.1-6.1,6.1c-2.4,0-4.4-1.3-5.4-3.2c2.9-2.7,5.9-5.3,9.2-7.6
					C209.5,142.6,210.4,144.3,210.4,146.2z"/>
			</g>
			<g>
				<circle class="st1" cx="262" cy="146.2" r="6.1"/>
			</g>
			<g>
				<path class="st1" d="M315.9,141.5c-1.4,1.1-2.3,2.8-2.3,4.7c0,3.4,2.7,6.1,6.1,6.1c2.3,0,4.3-1.3,5.4-3.2L315.9,141.5z"/>
			</g>
			<g>
				<circle class="st1" cx="204.3" cy="197.1" r="6.1"/>
			</g>
			<g>
				<circle class="st1" cx="262" cy="197.1" r="6.1"/>
			</g>
			<g>
				<circle class="st1" cx="319.7" cy="197.1" r="6.1"/>
			</g>
			<g>
				<circle class="st1" cx="204.3" cy="248" r="6.1"/>
			</g>
			<g>
				<circle class="st1" cx="262" cy="248" r="6.1"/>
			</g>
			<g>
				<circle class="st1" cx="319.7" cy="248" r="6.1"/>
			</g>
		</g>
	</g>
	<path class="st7" d="M208.1,141.5c-3.3,2.4-6.3,4.9-9.2,7.6c-0.7,0.6-1.5,1.3-2.1,2c-16.7,16.8-27.1,39.8-27.1,65.2v54.4h-3.8v8.1
		h-1.4c-7.5,0-13.7,6.2-13.7,13.7c0,3.1,1.1,6,2.9,8.3c0.3,0.4,0.7,0.9,1.2,1.3c0.8,0.8,1.7,1.5,2.7,2.1v60.3
		c0,53.7,41,98.2,93.3,103.8v14.2h-33.5c-6.3,0-11.5,5.2-11.5,11.6v15.8c0,1.1,0.8,1.9,1.9,1.9H262V124
		C241.9,124,223.3,130.5,208.1,141.5z M250.8,464.7c-51-5.7-89.4-48.6-89.4-100v-58.8c1,0.3,2,0.4,3.1,0.4h1.4v8.1h3.8v33.2
		c0,47,35.5,86.1,81.1,91.6L250.8,464.7L250.8,464.7z"/>
</g>
</svg>
