<?xml version="1.0" encoding="utf-8"?>
<!-- Generator: Adobe Illustrator 25.4.1, SVG Export Plug-In . SVG Version: 6.00 Build 0)  -->
<svg version="1.1" id="Layer_1" xmlns="http://www.w3.org/2000/svg" xmlns:xlink="http://www.w3.org/1999/xlink" x="0px" y="0px"
	 viewBox="0 0 586 116" style="enable-background:new 0 0 586 116;" xml:space="preserve">
<style type="text/css">
	.st0{fill-rule:evenodd;clip-rule:evenodd;}
</style>
<path class="st0" d="M-0.2-1.4v118.9h587.5V-1.4H-0.2z M111.9,99.1L84.2,78.6L56.5,99.1l10.6-33.3L39.4,45.3h34.2L84.2,12l10.6,33.3
	H129l-27.7,20.6L111.9,99.1z M219.6,99.1l-27.7-20.5l-27.7,20.5l10.6-33.2l-27.7-20.6h34.2L191.9,12l10.6,33.3h34.2L209,65.8
	L219.6,99.1z M331.5,99.1l-27.7-20.5l-27.7,20.5l10.6-33.3L259,45.3h34.2L303.8,12l10.6,33.3h34.2l-27.7,20.6L331.5,99.1z M435,99.1
	l-27.7-20.5l-27.7,20.5l10.6-33.3l-27.7-20.5h34.2L407.3,12l10.6,33.3h34.2l-27.7,20.6L435,99.1z M543.7,99.1L516,78.6l-27.7,20.5
	l10.6-33.3l-27.7-20.5h34.2L516,12l10.6,33.3h34.2l-27.7,20.6L543.7,99.1z"/>
</svg>
