<?xml version="1.0" encoding="utf-8"?>
<!-- Generator: Adobe Illustrator 25.4.1, SVG Export Plug-In . SVG Version: 6.00 Build 0)  -->
<svg version="1.1" id="Layer_1" xmlns="http://www.w3.org/2000/svg" xmlns:xlink="http://www.w3.org/1999/xlink" x="0px" y="0px"
	 viewBox="0 0 800 800" style="enable-background:new 0 0 800 800;" xml:space="preserve">
<style type="text/css">
	.st0{fill:#102DA2;}
	.st1{fill:#D36D0D;stroke:#D36D0D;stroke-width:3.125;stroke-miterlimit:12.5;}
</style>
<g id="SVGRepo_bgCarrier">
</g>
<g id="SVGRepo_tracerCarrier">
</g>
<g id="SVGRepo_iconCarrier">
	<path class="st0" d="M401.8,317.4c47.5,0,85.7-38.3,85.7-85.7s-38-85.7-85.7-85.7c-47.5,0-85.7,38.3-85.7,85.7
		C316.4,279.4,354.6,317.4,401.8,317.4z M202.8,565.7h-154c-49.9,0-52.7-76.2,0.9-76.2h133.5l76.5-112.7
		c22.7-30.9,48.4-45.6,84.8-45.6h114.2c36.4,0,62.1,13.5,84.8,45.6l76.8,112.7h134.4c53.9,0,50.5,76.2,1.8,76.2h-154
		c-12.2,0-26.9-4.3-35.5-17.4l-58.8-83.9l-0.3,210H297.4l-0.3-210l-58.8,83.9C229.7,561.1,215,565.7,202.8,565.7z"/>
	<path class="st1" d="M793.8,442.2h-68.5v-44.9h-29.2v44.9h-68.5V227.6h41.1v-15.5h84v15.5h41.1V442.2z M682.4,337H655v27.4h27.4
		V337z M682.4,296.1H655v27.4h27.4V296.1z M682.4,255H655v27.4h27.4V255z M725.3,337h-29.2v27.4h29.2V337z M725.1,323.5v-27.4h-14.4
		h-0.2h-14.4v27.4h29.2H725.1z M725.3,255h-14.4h-0.2h-14.4v27.4h14.4h0.2h14.4V255z M766.4,337H739v27.4h27.4V337z M766.4,296.1
		H739v27.4h2.4h25L766.4,296.1L766.4,296.1z M766.4,255H739v27.4h27.4V255z"/>
	<path class="st1" d="M206,343.7c0,6-4.9,11.1-11.1,11.1c-3.3,0-6.3-1.5-8.3-3.7l-13-12v103.2h-46.5v-72.7H87.1v72.7H39.9v-104
		l-15,13.5c-1.9,2-4.7,3.1-7.6,3.1c-6,0-11.1-4.9-11.1-11c0-3.4,1.6-6.7,4.1-8.6l96.9-86.6l29.1,26.5v-22.4h24.9v45.2l42.1,38.5
		C205,338.2,206,340.8,206,343.7z"/>
	<g id="shopping_cart">
	</g>
	<g id="cross">
	</g>
	<g id="leaf">
	</g>
</g>
</svg>
