<?xml version="1.0" encoding="utf-8"?>
<!-- Generator: Adobe Illustrator 25.4.1, SVG Export Plug-In . SVG Version: 6.00 Build 0)  -->
<svg version="1.1" id="Layer_1" xmlns="http://www.w3.org/2000/svg" xmlns:xlink="http://www.w3.org/1999/xlink" x="0px" y="0px"
	 viewBox="0 0 800 800" style="enable-background:new 0 0 800 800;" xml:space="preserve">
<style type="text/css">
	.st0{fill:#E27D23;}
	.st1{fill:#1C2CA0;stroke:#1C2CA0;stroke-width:1.5648;stroke-miterlimit:6.2592;}
</style>
<g id="SVGRepo_bgCarrier">
</g>
<g id="SVGRepo_tracerCarrier">
</g>
<g id="SVGRepo_iconCarrier">
	<g>
		<g>
			<path class="st0" d="M0,602.5v133.9h133.3V602.5H0z M108.3,711.4H25v-83.8h83.2V711.4z"/>
		</g>
	</g>
	<g>
		<g>
			<path class="st0" d="M0,415.6v133.9h133.3V415.6H0z M108.3,524.5H25v-83.8h83.2V524.5z"/>
		</g>
	</g>
	<g>
		<g>
			<path class="st0" d="M0,228.7v133.9h133.3V228.7L0,228.7L0,228.7z M108.3,337.6H25v-83.8h83.2V337.6z"/>
		</g>
	</g>
	<g>
		<g>
			<rect x="233.3" y="69.8" class="st1" width="266.7" height="25"/>
		</g>
	</g>
	<g>
		<g>
			<rect x="233.3" y="136.7" class="st1" width="566.7" height="25"/>
		</g>
	</g>
	<g>
		<g>
			<rect x="233.3" y="249.7" class="st1" width="266.7" height="25"/>
		</g>
	</g>
	<g>
		<g>
			<rect x="233.3" y="316.7" class="st1" width="566.7" height="25"/>
		</g>
	</g>
	<g>
		<g>
			<rect x="233.3" y="436.6" class="st1" width="266.7" height="25"/>
		</g>
	</g>
	<g>
		<g>
			<rect x="233.3" y="503.7" class="st1" width="566.7" height="25"/>
		</g>
	</g>
	<g>
		<g>
			<rect x="233.3" y="623.5" class="st1" width="266.7" height="25"/>
		</g>
	</g>
	<g>
		<g>
			<rect x="233.3" y="690.5" class="st1" width="566.7" height="25"/>
		</g>
	</g>
	<g>
		<g>
			<polygon class="st0" points="113.8,63.6 45.4,138.9 19.1,112.5 1.3,130.2 46.3,175.3 132.4,80.4 			"/>
		</g>
	</g>
</g>
</svg>
