<?xml version="1.0" encoding="utf-8"?>
<!-- Generator: Adobe Illustrator 25.4.1, SVG Export Plug-In . SVG Version: 6.00 Build 0)  -->
<svg version="1.1" id="Layer_1" xmlns="http://www.w3.org/2000/svg" xmlns:xlink="http://www.w3.org/1999/xlink" x="0px" y="0px"
	 viewBox="0 0 1115 873" style="enable-background:new 0 0 1115 873;" xml:space="preserve">
<style type="text/css">
	.st0{fill:#FFFFFF;}
	.st1{fill:#4C4C4C;}
	.st2{enable-background:new    ;}
	.st3{fill:#515151;}
</style>
<g id="Layer_2_00000026852865766896375920000007211204261129463936_">
	<g id="Layer_1-2">
		<rect x="10" y="84" class="st0" width="453" height="690"/>
		<path class="st1" d="M453,94v670H20V94H453 M473,74H0v710h473V74z"/>
		<g class="st2">
			<path class="st3" d="M89.9,475.6l29-3.9c3.3,16.4,9,28.3,17,35.5c8,7.2,17.8,10.9,29.2,10.9c13.6,0,25.2-4.7,34.6-14.2
				c9.4-9.5,14.1-21.2,14.1-35.1c0-13.3-4.4-24.3-13.1-33c-8.7-8.6-19.8-13-33.2-13c-5.5,0-12.3,1.1-20.5,3.2l3.2-25.5
				c1.9,0.2,3.5,0.3,4.7,0.3c12.4,0,23.5-3.2,33.4-9.7c9.9-6.4,14.8-16.4,14.8-29.8c0-10.6-3.6-19.4-10.8-26.4
				c-7.2-7-16.5-10.5-27.9-10.5c-11.3,0-20.7,3.5-28.2,10.6c-7.5,7.1-12.4,17.7-14.5,31.9l-29-5.2c3.5-19.4,11.6-34.5,24.2-45.2
				c12.6-10.7,28.2-16,46.9-16c12.9,0,24.8,2.8,35.6,8.3c10.8,5.5,19.1,13.1,24.9,22.6c5.7,9.6,8.6,19.7,8.6,30.5
				c0,10.2-2.7,19.5-8.2,27.9s-13.6,15-24.3,20c14,3.2,24.8,9.9,32.5,20.1c7.7,10.2,11.6,22.9,11.6,38.1c0,20.6-7.5,38.1-22.6,52.4
				c-15,14.3-34.1,21.5-57,21.5c-20.7,0-37.9-6.2-51.6-18.5C99.6,511.2,91.8,495.2,89.9,475.6z"/>
		</g>
		<rect x="652" y="101" class="st0" width="453" height="690"/>
		<path class="st1" d="M1095,111v670H662V111H1095 M1115,91H642v710h473V91z"/>
		<g class="st2">
			<path class="st3" d="M1010.9,555.9h-29V371.1c-7,6.7-16.1,13.3-27.5,20c-11.3,6.7-21.5,11.7-30.5,15v-28
				c16.2-7.6,30.4-16.9,42.5-27.7c12.1-10.8,20.7-21.4,25.8-31.6h18.7V555.9z"/>
		</g>
		<rect x="280.5" y="10" class="st0" width="561.6" height="853"/>
		<path class="st1" d="M832.1,20v833H290.5V20H832.1 M852.1,0H270.5v873h581.6V0z"/>
		<g class="st2">
			<path class="st3" d="M654.3,527.4v34.3h-192c-0.3-8.6,1.1-16.8,4.2-24.8c4.9-13.1,12.7-26,23.5-38.6c10.8-12.7,26.3-27.3,46.7-44
				c31.6-25.9,52.9-46.4,64-61.5c11.1-15.1,16.6-29.4,16.6-42.9c0-14.1-5.1-26.1-15.2-35.8c-10.1-9.7-23.3-14.6-39.5-14.6
				c-17.2,0-30.9,5.2-41.2,15.5s-15.5,24.6-15.7,42.8l-36.7-3.8c2.5-27.3,12-48.2,28.3-62.5c16.4-14.3,38.4-21.5,66-21.5
				c27.9,0,49.9,7.7,66.2,23.2c16.2,15.5,24.4,34.6,24.4,57.5c0,11.6-2.4,23.1-7.1,34.3c-4.8,11.2-12.6,23.1-23.7,35.5
				c-11,12.4-29.4,29.5-55,51.1c-21.4,18-35.1,30.2-41.2,36.6c-6.1,6.4-11.1,12.8-15.1,19.3H654.3z"/>
		</g>
	</g>
</g>
</svg>
